<svg fill="#40C057" xmlns="http://www.w3.org/2000/svg" width="64" height="64">
    <path
        d="M32 8C18.745 8 8 18.297 8 31c0 4.509 1.3592 8.7117 3.6992 12.2617L10 56l15.4004-2.8887A24.966 24.966 0 0 0 32 54c13.255 0 24-10.297 24-23S45.255 8 32 8zm0 3.4297c5.802-.059 11.5915 2.5081 15.4395 6.9121 3.884 4.38 5.5876 10.6085 4.4746 16.3945-1.065 5.818-4.991 10.9373-10.166 13.7383-5.056 2.711-11.2632 3.2274-16.7032 1.3164l-9.7812 2.1738-1.5293.3399.289-1.5215v-.002l1.3496-8.2207c-.862-1.38-1.5914-2.8269-2.1464-4.3359-.612-1.744-1.0181-3.5509-1.1641-5.3789-.072-.914-.0867-1.8292-.0137-2.7402.017-.916.1732-1.8188.3282-2.7188.392-1.779.9393-3.5416 1.8203-5.1426.843-1.612 1.8793-3.1374 3.1543-4.4414.596-.692 1.3172-1.258 1.9902-1.871.738-.533 1.444-1.1167 2.246-1.5547 3.104-1.932 6.7662-2.8753 10.4122-2.9473zM31.996 14c-3.193.024-6.413.795-9.166 2.457-.713.373-1.335.8829-1.994 1.3399-.595.535-1.2476 1.0178-1.7696 1.6308-1.131 1.141-2.044 2.4816-2.793 3.8946-1.49 2.845-2.0632 6.1248-1.7402 9.2988.362 3.169 1.763 6.1947 3.914 8.4687v.002l.465.5703-.1837.6543-1.8965 6.7305 8.0762-2.6192.002-.002.4375-.1405.4648.1835c4.618 1.819 10.006 1.4882 14.42-.7968 4.395-2.311 7.7772-6.5911 8.7382-11.4961 1.001-4.891-.3574-10.2006-3.6484-14.0176C42.0583 16.3252 37.078 14.017 31.996 14zm-7.6034 7.248c.566.002 2.1699 0 2.1699 0l2.17 5.4239c-.772 1.209-1.5657 1.884-2.1407 2.543.321.782 1.6364 2.7325 3.1934 4.1015 2.007 1.76 3.7462 2.5822 4.9882 2.8242.65-.484 2.2897-2.441 2.6387-2.959l5.4238 2.17c0 1.085-.14 1.6572-.582 2.8652-.434 1.208-2.527 2.312-3.539 2.457-.902.136-2.0418.1879-3.3008-.2031-.757-.238-1.7344-.5538-2.9844-1.0898-5.256-2.245-8.691-7.4674-8.955-7.8164-.255-.34-2.1349-2.8067-2.1349-5.3497s1.351-3.8013 1.836-4.3203c.476-.519.8688-.6485 1.2168-.6465z" />
</svg>